<?xml version="1.0" encoding="UTF-8" standalone="no"?>
<!-- Created with Inkscape (http://www.inkscape.org/) -->

<svg
   width="18.226748mm"
   height="28.188879mm"
   viewBox="0 0 18.226748 28.18888"
   version="1.1"
   id="svg1"
   xml:space="preserve"
   inkscape:version="1.4.2 (ebf0e94, 2025-05-08)"
   sodipodi:docname="202511_portada_constelando.svg"
   inkscape:export-filename="g6.pdf"
   inkscape:export-xdpi="300"
   inkscape:export-ydpi="300"
   xmlns:inkscape="http://www.inkscape.org/namespaces/inkscape"
   xmlns:sodipodi="http://sodipodi.sourceforge.net/DTD/sodipodi-0.dtd"
   xmlns="http://www.w3.org/2000/svg"
   xmlns:svg="http://www.w3.org/2000/svg"><sodipodi:namedview
     id="namedview1"
     pagecolor="#505050"
     bordercolor="#eeeeee"
     borderopacity="1"
     inkscape:showpageshadow="0"
     inkscape:pageopacity="0"
     inkscape:pagecheckerboard="0"
     inkscape:deskcolor="#505050"
     inkscape:document-units="mm"
     inkscape:zoom="0.5"
     inkscape:cx="700"
     inkscape:cy="682"
     inkscape:window-width="2560"
     inkscape:window-height="1377"
     inkscape:window-x="0"
     inkscape:window-y="0"
     inkscape:window-maximized="1"
     inkscape:current-layer="layer5"
     showguides="true"><inkscape:page
       x="0"
       y="1.0811482e-14"
       width="18.226748"
       height="28.188881"
       id="page1"
       margin="0"
       bleed="0" /></sodipodi:namedview><defs
     id="defs1" /><g
     inkscape:groupmode="layer"
     id="layer1"
     inkscape:label="4"
     style="display:inline"
     transform="translate(-139.22965,-340.90482)"><g
       id="g259-1-3-7"
       transform="matrix(0.89374281,0,0,0.89374281,39.576128,175.67632)"
       style="display:inline;opacity:1;fill:#ffffff;fill-opacity:1;stroke-width:1.01418"><g
         id="g59-0-1-2"
         style="fill:#ffffff;fill-opacity:1;stroke-width:1.01418"><g
           transform="matrix(0.24315921,0,0,0.24315921,172.87941,259.40812)"
           id="g1265-4-8-3"
           style="fill:#ffffff;fill-opacity:1;stroke-width:8.34165;stroke-dasharray:none"><path
             style="color:#000000;fill:#ffffff;fill-opacity:1;stroke-width:8.34165;stroke-linecap:round;stroke-linejoin:round;stroke-dasharray:none"
             d="m -210.46094,-306.5293 a 0.52921795,0.52921795 0 0 0 -0.55273,0.47461 c -1.43151,14.07564 -3.29126,28.39095 -6.24805,39.11524 -0.30331,1.10012 -0.67087,1.97793 -0.99805,2.99804 -0.0908,-0.0759 -0.17243,-0.17546 -0.26367,-0.25 -2.96625,-2.4233 -6.21725,-4.1475 -9.99023,-4.16992 -7.49441,-0.0446 -13.44922,5.6217 -13.44922,12.79492 0,7.41782 5.67751,13.18912 13.03125,13.29102 3.79575,0.0526 7.12888,-1.63308 10.18359,-4.05859 3.05472,-2.42552 5.85876,-5.60067 8.65235,-8.63672 a 0.52921795,0.52921795 0 0 0 0.11914,-0.22071 0.52921795,0.52921795 0 0 0 0.002,-0.008 0.52921795,0.52921795 0 0 0 0.0195,-0.1289 l -0.004,-50.67383 a 0.52921795,0.52921795 0 0 0 -0.50196,-0.52735 z m -0.55664,9.19922 0.004,40.6543 c -2.08445,-2.26129 -4.19126,-4.49777 -6.39844,-6.4668 0.38712,-1.18037 0.81584,-2.23136 1.16992,-3.51562 2.37301,-8.60691 3.92463,-19.53205 5.22461,-30.67188 z m -17.50195,30.02735 c 3.45488,0.0205 6.46205,1.59177 9.32617,3.93164 0.19323,0.15785 0.37468,0.37066 0.56641,0.53515 -0.11498,0.33812 -0.22395,0.69769 -0.3418,1.02539 -1.95083,-1.0456 -3.79566,-1.90023 -5.38672,-2.30078 -3.70597,-0.93298 -6.53839,-0.27286 -8.77734,0.98828 -3.28251,1.84895 -4.70139,5.48314 -4.16211,8.69532 0.53927,3.21217 3.13286,6.01854 7.57226,6.08984 3.16728,0.0509 5.83851,-1.89075 8.02539,-5.11914 1.25401,-1.85122 2.34182,-4.23131 3.34961,-6.86719 2.09028,1.22837 4.44937,2.91715 7.06836,5.07422 -2.66613,2.90571 -5.32059,5.85957 -8.12695,8.08789 -2.9487,2.34134 -6.0371,3.87628 -9.51172,3.82813 -6.81218,-0.0944 -11.98633,-5.35002 -11.98633,-12.23243 0,-6.58988 5.42347,-11.77774 12.38477,-11.73632 z m -0.62695,3.89843 c 1.30948,-0.18555 2.79659,-0.11688 4.5332,0.32032 1.53608,0.3867 3.35206,1.21001 5.31055,2.27539 -0.99819,2.62349 -2.0665,4.97895 -3.27149,6.75781 -2.07596,3.06463 -4.40044,4.69815 -7.13086,4.6543 -4.01497,-0.0645 -6.07948,-2.42107 -6.54687,-5.20508 -0.4674,-2.78402 0.76058,-5.97847 3.63867,-7.59961 1.02538,-0.57757 2.15731,-1.01757 3.4668,-1.20313 z m 11.36718,1.36914 c 1.11138,1.01547 2.22097,2.04491 3.30664,3.19532 -1.16145,-0.81745 -2.48066,-1.92514 -3.52734,-2.53321 0.0763,-0.21164 0.14568,-0.44639 0.2207,-0.66211 z"
             id="path851-1-3-1-8-6-7-58-2-7-3-0-2-0-3" /><path
             style="color:#000000;fill:#ffffff;fill-opacity:1;stroke-width:8.34165;stroke-linecap:round;stroke-linejoin:round;stroke-dasharray:none"
             d="m -192.03711,-268.38281 c -3.79575,-0.0526 -7.12888,1.63308 -10.18359,4.05859 -3.05472,2.42551 -5.85876,5.60067 -8.65235,8.63672 a 0.52921795,0.52921795 0 0 0 -0.14062,0.35938 l 0.004,50.67187 a 0.52921795,0.52921795 0 0 0 1.05469,0.0527 c 1.43151,-14.07563 3.29126,-28.38899 6.24805,-39.11328 0.30331,-1.10012 0.67087,-1.97793 0.99805,-2.99804 0.0904,0.0756 0.17277,0.17378 0.26367,0.24804 2.96625,2.4233 6.21725,4.1475 9.99023,4.16993 7.49441,0.0446 13.44922,-5.6217 13.44922,-12.79493 0,-7.41782 -5.67751,-13.18911 -13.03125,-13.29101 z m -0.0137,1.05859 c 6.81218,0.0944 11.98633,5.35002 11.98633,12.23242 0,6.58988 -5.42347,11.7797 -12.38477,11.73828 -3.45488,-0.0205 -6.46205,-1.59177 -9.32617,-3.93164 -0.19313,-0.15778 -0.37477,-0.37074 -0.56641,-0.53515 0.11498,-0.33812 0.22395,-0.69769 0.3418,-1.02539 1.95079,1.04557 3.79569,1.89828 5.38672,2.29883 3.70597,0.93298 6.53839,0.27481 8.77734,-0.98633 3.28251,-1.84895 4.70139,-5.48509 4.16211,-8.69727 -0.53927,-3.21218 -3.13482,-6.01659 -7.57422,-6.08789 -3.16728,-0.0509 -5.83655,1.8888 -8.02343,5.11719 -1.25427,1.8516 -2.34166,4.23257 -3.34961,6.86914 -2.0903,-1.22838 -4.44933,-2.91907 -7.06836,-5.07617 2.66613,-2.90571 5.32059,-5.85957 8.12695,-8.08789 2.9487,-2.34134 6.0371,-3.87628 9.51172,-3.82813 z m 0.78711,6.0625 c 4.01497,0.0645 6.07948,2.42302 6.54687,5.20703 0.4674,2.78402 -0.76058,5.97847 -3.63867,7.59961 -2.05077,1.15515 -4.52678,1.7572 -8,0.88281 -1.53608,-0.3867 -3.35206,-1.21001 -5.31055,-2.27539 0.99819,-2.62349 2.0665,-4.98091 3.27149,-6.75976 2.07596,-3.06464 4.40044,-4.69815 7.13086,-4.6543 z m -18.69141,7.28125 c 2.08438,2.26121 4.19133,4.49589 6.39844,6.46485 -0.38712,1.18036 -0.81584,2.23136 -1.16992,3.51562 -2.37295,8.6067 -3.92464,19.53233 -5.22461,30.67188 z m 3.45508,2.16211 c 1.16258,0.81835 2.48366,1.92655 3.53125,2.53516 -0.0763,0.21165 -0.14569,0.44638 -0.2207,0.66211 -1.112,-1.01599 -2.22427,-2.04619 -3.31055,-3.19727 z"
             id="path851-1-3-1-8-6-7-58-2-7-3-2-2-1-2" /></g></g></g><text
       xml:space="preserve"
       style="font-weight:bold;font-size:2.29023px;line-height:1;font-family:Jura;-inkscape-font-specification:'Jura Bold';text-align:center;letter-spacing:0px;word-spacing:0px;writing-mode:lr-tb;direction:ltr;text-anchor:middle;fill:#ffffff;fill-opacity:1;stroke:none;stroke-width:0.999999;stroke-linejoin:round"
       x="148.27374"
       y="366.8035"
       id="text4"><tspan
         sodipodi:role="line"
         id="tspan4"
         style="fill:#ffffff;fill-opacity:1;stroke:none;stroke-width:0.999999"
         x="148.27374"
         y="366.8035">Sergio Cruz </tspan><tspan
         sodipodi:role="line"
         style="fill:#ffffff;fill-opacity:1;stroke:none;stroke-width:0.999999"
         x="148.27374"
         y="369.09372"
         id="tspan5">Diseño Editorial</tspan></text></g></svg>
